<?xml version="1.0" encoding="UTF-8" standalone="no"?>
<svg
   viewBox="0 0 14 16"
   version="1.1"
   id="svg1"
   sodipodi:docname="box-check.svg"
   width="14"
   height="16"
   inkscape:version="1.4.3 (0d15f75, 2025-12-25)"
   inkscape:export-filename="\\wsl$\Ubuntu\home\vhoyer\src\joe-adventure\addons\export_rules\icon.svg"
   inkscape:export-xdpi="96"
   inkscape:export-ydpi="96"
   xmlns:inkscape="http://www.inkscape.org/namespaces/inkscape"
   xmlns:sodipodi="http://sodipodi.sourceforge.net/DTD/sodipodi-0.dtd"
   xmlns="http://www.w3.org/2000/svg"
   xmlns:svg="http://www.w3.org/2000/svg">
  <defs
     id="defs1" />
  <sodipodi:namedview
     id="namedview1"
     pagecolor="#505050"
     bordercolor="#eeeeee"
     borderopacity="1"
     inkscape:showpageshadow="0"
     inkscape:pageopacity="0"
     inkscape:pagecheckerboard="0"
     inkscape:deskcolor="#505050"
     inkscape:zoom="45.254834"
     inkscape:cx="7.3030872"
     inkscape:cy="8.1096309"
     inkscape:current-layer="svg1">
    <inkscape:page
       x="0"
       y="0"
       width="14"
       height="16"
       id="page2"
       margin="0"
       bleed="0" />
  </sodipodi:namedview>
  <!--! Font Awesome Pro 7.1.0 by @fontawesome - https://fontawesome.com License - https://fontawesome.com/license (Commercial License) Copyright 2025 Fonticons, Inc. -->
  <path
     id="path1"
     style="fill:#ffffff;fill-opacity:1;stroke-width:0.031271"
     d="m 3.53125,0.74609375 -0.2421875,0.015625 C 2.7355667,0.82738773 2.2287355,1.1243015 1.9003906,1.5839844 L 0.37304688,3.7265625 0.28710938,3.8574219 C 0.09948367,4.1670042 0,4.5247549 0,4.890625 v 8.365234 l 0.015625,0.203125 c 0.09381283,0.941256 0.84390082,1.688214 1.7851562,1.785157 l 0.203125,0.0098 H 12.011719 l 0.203125,-0.0098 C 13.1561,15.150326 13.90306,14.400239 14,13.458984 l 0.0098,-0.203125 V 4.890625 c 0,-0.4159036 -0.132261,-0.8263363 -0.373047,-1.1640625 L 12.107422,1.5839844 C 11.732171,1.0586325 11.125824,0.74609375 10.478516,0.74609375 h -0.002 z M 3.5332,2.7480469 h 6.945316 L 11.550781,4.25 H 2.4609375 Z M 2.8905858,6.0299671 c 0.6692963,0 1.2116415,0.5423467 1.2116415,1.2116413 0,0.6692952 -0.5423451,1.2116414 -1.2116415,1.2116414 -0.6692945,0 -1.2116414,-0.5423462 -1.2116414,-1.2116414 0,-0.6692946 0.5423472,-1.2116413 1.2116414,-1.2116413 z m 2.4588629,0.6469484 h 6.6063243 c 0.310639,0 0.564693,0.254054 0.564693,0.5646929 0,0.3106387 -0.254054,0.564693 -0.564693,0.564693 H 5.3494487 c -0.310639,0 -0.5646931,-0.2540542 -0.5646929,-0.564693 0,-0.3106389 0.2540539,-0.5646929 0.5646929,-0.5646929 z m 5.2444083,2.3617182 c 0.144728,0 0.289924,0.055909 0.399354,0.165338 l 1.779363,1.7793643 c 0.21886,0.218857 0.215859,0.576888 0,0.798708 l -1.779363,1.82851 c -0.215858,0.22182 -0.577306,0.218859 -0.796166,0 -0.2188594,-0.21886 -0.2188594,-0.579851 0,-0.79871 L 11.01236,11.947383 H 6.1863134 c -0.3106376,0 -0.5646928,-0.254054 -0.5646928,-0.564693 0,-0.310638 0.2540552,-0.564693 0.5646928,-0.564693 H 11.01236 l -0.815315,-0.815316 c -0.2188587,-0.2188587 -0.2188594,-0.5798499 0,-0.7987093 0.109424,-0.109429 0.252082,-0.165338 0.396812,-0.165338 z M 5.4882133,9.1682376 c 0.32056,0.2392968 0.3857022,0.6880076 0.1464066,1.0085744 l -2.1700625,2.892331 c -0.1354508,0.180602 -0.3501125,0.286305 -0.5758635,0.286305 -0.2257506,0 -0.4436729,-0.10571 -0.579117,-0.286305 L 1.2261726,11.624604 C 0.98688574,11.304038 1.0520113,10.852072 1.3725793,10.612776 1.6931459,10.373488 2.1418586,10.435357 2.3811536,10.755932 L 2.8886946,11.4294 4.4763862,9.311393 c 0.1346044,-0.1803185 0.338763,-0.2801336 0.5234906,-0.2885125 0.1847278,-0.00838 0.3480886,0.040666 0.4883365,0.1453571 z"
     sodipodi:nodetypes="cccccsccccccccsccscccccccsssssssssssssccsssccssscssscccscccccccc" />
</svg>
