<?xml version="1.0" encoding="UTF-8" standalone="no"?>
<svg
   viewBox="0 0 10 10"
   version="1.1"
   id="svg1"
   sodipodi:docname="x-solid.svg"
   width="10"
   height="10"
   inkscape:version="1.4.3 (0d15f75, 2025-12-25)"
   xmlns:inkscape="http://www.inkscape.org/namespaces/inkscape"
   xmlns:sodipodi="http://sodipodi.sourceforge.net/DTD/sodipodi-0.dtd"
   xmlns="http://www.w3.org/2000/svg"
   xmlns:svg="http://www.w3.org/2000/svg">
  <defs
     id="defs1" />
  <sodipodi:namedview
     id="namedview1"
     pagecolor="#505050"
     bordercolor="#eeeeee"
     borderopacity="1"
     inkscape:showpageshadow="0"
     inkscape:pageopacity="0"
     inkscape:pagecheckerboard="0"
     inkscape:deskcolor="#505050"
     inkscape:zoom="18.73833"
     inkscape:cx="7.9249326"
     inkscape:cy="7.0443846"
     inkscape:current-layer="svg1" />
  <!--!Font Awesome Free 7.2.0 by @fontawesome - https://fontawesome.com License - https://fontawesome.com/license/free Copyright 2026 Fonticons, Inc.-->
  <path
     d="M 9.1201991,1.1721876 C 9.3724108,0.86864099 9.332235,0.41778504 9.0286883,0.16557336 8.7251416,-0.08663802 8.2742858,-0.04646299 8.0220743,0.25708366 L 4.9999996,3.8840195 1.9779257,0.25708366 C 1.7257141,-0.04646299 1.274858,-0.08663802 0.97131137,0.16557336 0.66776476,0.41778504 0.62758951,0.86864099 0.87980097,1.1721876 L 4.0692727,4.9999998 0.87980097,8.8278123 C 0.62758951,9.131359 0.66776476,9.5822148 0.97131137,9.8344265 1.274858,10.086638 1.7257141,10.046463 1.9779257,9.7429157 L 4.9999996,6.1159798 8.0220743,9.7429157 C 8.2742858,10.046463 8.7251416,10.086638 9.0286883,9.8344265 9.332235,9.5822148 9.3724108,9.131359 9.1201991,8.8278123 L 5.9307275,4.9999998 Z"
     id="path1"
     style="fill:#ffffff;fill-opacity:1;stroke-width:0.0223196" />
</svg>
