<?xml version="1.0" encoding="UTF-8" standalone="no"?>
<svg
   viewBox="0 0 512 512"
   version="1.1"
   id="svg1"
   sodipodi:docname="icon.svg"
   width="512"
   height="512"
   inkscape:version="1.4.3 (0d15f75, 2025-12-25)"
   inkscape:export-filename="\\wsl$\Ubuntu\home\vhoyer\src\joe-adventure\addons\export_rules\icon.svg"
   inkscape:export-xdpi="96"
   inkscape:export-ydpi="96"
   xmlns:inkscape="http://www.inkscape.org/namespaces/inkscape"
   xmlns:sodipodi="http://sodipodi.sourceforge.net/DTD/sodipodi-0.dtd"
   xmlns="http://www.w3.org/2000/svg"
   xmlns:svg="http://www.w3.org/2000/svg">
  <defs
     id="defs1" />
  <sodipodi:namedview
     id="namedview1"
     pagecolor="#505050"
     bordercolor="#eeeeee"
     borderopacity="1"
     inkscape:showpageshadow="0"
     inkscape:pageopacity="0"
     inkscape:pagecheckerboard="0"
     inkscape:deskcolor="#505050"
     inkscape:zoom="1"
     inkscape:cx="320.5"
     inkscape:cy="274"
     inkscape:current-layer="svg1">
    <inkscape:page
       x="0"
       y="0"
       width="512"
       height="512"
       id="page2"
       margin="0"
       bleed="0" />
  </sodipodi:namedview>
  <!--! Font Awesome Pro 7.1.0 by @fontawesome - https://fontawesome.com License - https://fontawesome.com/license (Commercial License) Copyright 2025 Fonticons, Inc. -->
  <path
     id="path1"
     style="fill:#ffffff;fill-opacity:1;stroke-width:1.10198"
     d="m 133.5892,0.37304844 -8.53464,0.55062214 C 105.54946,3.2378335 87.688825,13.701021 76.118011,29.900165 l -53.823317,75.504055 -3.028421,4.61146 C 12.654376,120.92531 9.14859,133.53238 9.14859,146.42558 v 294.78934 l 0.5506222,7.15806 c 3.3059468,33.16971 29.7389118,59.49236 62.9085798,62.90861 l 7.158089,0.34536 H 432.43938 l 7.15809,-0.34536 c 33.16968,-3.30602 59.49243,-29.73893 62.90858,-62.90861 l 0.34536,-7.15806 V 146.42558 c 0,-14.65637 -4.66086,-29.11995 -13.14613,-41.02136 L 435.81195,29.900165 C 422.58818,11.386858 401.2206,0.37304844 378.40959,0.37304844 h -0.0704 z m 0.0687,70.54846456 h 244.75169 l 37.78643,52.928557 H 95.87158 Z M 111.01231,186.57578 c 23.58588,0 42.69803,19.1122 42.69803,42.69802 0,23.58585 -19.11215,42.69803 -42.69803,42.69803 -23.585819,0 -42.698022,-19.11218 -42.698022,-42.69803 0,-23.58582 19.112216,-42.69802 42.698022,-42.69802 z m 86.64988,22.79835 h 232.80568 c 10.94686,0 19.89968,8.95281 19.89968,19.89967 0,10.94685 -8.95282,19.89968 -19.89968,19.89968 H 197.66219 c -10.94686,0 -19.89968,-8.95282 -19.89967,-19.89968 0,-10.94686 8.95281,-19.89967 19.89967,-19.89967 z m 184.81199,83.22652 c 5.1002,0 10.21688,1.97022 14.07316,5.82648 l 62.70443,62.70447 c 7.71259,7.71249 7.60684,20.32944 0,28.14632 l -62.70443,64.43636 c -7.60678,7.81692 -20.34414,7.71256 -28.05673,0 -7.71255,-7.71258 -7.71255,-20.43383 0,-28.14638 l 28.73155,-30.46345 H 227.15315 c -10.94681,0 -19.89967,-8.95282 -19.89967,-19.89969 0,-10.94681 8.95286,-19.89966 19.89967,-19.89966 h 170.06901 l -28.73155,-28.73161 c -7.71255,-7.71253 -7.71255,-20.43379 0,-28.14636 3.85609,-3.85626 8.88333,-5.82648 13.98357,-5.82648 z m -179.92195,4.56722 c 11.29648,8.43277 13.59208,24.24526 5.15934,35.54198 l -76.47261,101.9252 c -4.77326,6.36439 -12.3379,10.08936 -20.29332,10.08936 -7.95541,0 -15.634954,-3.72522 -20.407978,-10.08936 L 52.35869,383.72979 c -8.432425,-11.29671 -6.137413,-27.2239 5.159347,-35.65666 11.296706,-8.43247 27.109263,-6.2522 35.541976,5.04479 l 17.885647,23.7329 55.94997,-74.63818 c 4.74343,-6.35439 11.93794,-9.87186 18.44771,-10.16713 6.50978,-0.29532 12.26658,1.43306 17.20889,5.12236 z"
     sodipodi:nodetypes="cccccsccccccccsccscccccccsssssssssssssccsssccssscssscccscccccccc" />
</svg>
